<?xml version="1.0" encoding="utf-8"?>
<!-- Generator: Adobe Illustrator 18.1.1, SVG Export Plug-In . SVG Version: 6.00 Build 0)  -->
<svg version="1.1" id="Layer_1" xmlns="http://www.w3.org/2000/svg" xmlns:xlink="http://www.w3.org/1999/xlink" x="0px" y="0px"
	 viewBox="0 0 960 560" style="enable-background:new 0 0 960 560;" xml:space="preserve">
<style type="text/css">
	.st0{fill:#FFFFFF;}
</style>
<g>
	<g>
		<path class="st0" d="M359.8,73.9c-5.1,13.5-2.6,25.7-3.5,30.8c0.6,7.4-6.4,8.3-8.3,3.2c-2.6-6.7-5.1-18-11.9-21.5
			c-9.6-4.8-35-3.2-48.1-2.9c0,0-0.6,7.4-1.9,31.8c-0.6,13.8-2.2,27.6-1.6,41.7c6.7,0,12.5,0,18.3-2.9c4.2-2.2,7.1-5.1,8.7-9.6
			c1-2.9,1.6-5.8,2.6-8.7c0.6-1.9,1.3-3.9,3.9-3.5c2.2,0.6,2.9,2.6,2.9,4.8c0,3.2,0,6.7,0,10.3c0.3,10.3,0.6,20.8,0.6,31.1
			c0.3,1.6,0.3,3.2,0.3,4.5c-0.3,2.2-1,3.8-3.2,3.8c-2.2,0.3-3.5-1-4.2-2.9c-0.3-1.6-0.6-3.2-1-4.8c-1.9-8.3-4.8-10.9-13.5-12.2
			c-4.8-0.6-9.9-1.3-15.1-0.6c0,1.3-0.3,2.6-0.3,3.9c0,7.1,0.3,13.8,0,20.5c-0.3,22.8-1.3,45.5-1.6,68.3c0,14.1,0.3,28.2,0.6,42
			c0.3,6.1,4.5,9.9,9.3,12.8c1.3,0.6,2.9,1,2.9,2.9c0,1.9-1.6,2.6-3.5,2.6c-4.5,0.3-9,0.6-13.8,0.6c-9.3,0.3-18.3,0.3-27.6,0.3
			c-1.3,0-2.2-1-3.2-1.6c0.6-1,1-2.6,1.6-3.2c3.2-1.9,6.1-4.2,8-7.7c1.6-2.9,1.9-6.1,2.2-9c0.3-14.1,0.6-28.2,1-42.3
			c0.3-12.2,0.6-24.4,0.6-36.6c0.3-17.6,0.3-35.3,0.6-53.6c-3.5,0-6.7,0-9.6,0c-1.6,0-3.5,0-5.5-0.3c-1.9-0.3-3.8-2.2-3.8-4.5
			c0.3-2.6,2.2-2.9,4.2-3.2c4.8-0.3,9.3-0.6,13.8-1c0.3-0.6,0.6-1.3,0.6-1.6c0.3-17.6,0.3-35.3,0.6-52.9c0-2.6-0.3-9-0.6-12.5
			c0-1.3,0-2.2-0.3-3.2c-0.3-1.6-1.3-2.6-2.9-2.9c-26.9-3.8-43.6,5.1-48.1,24.7c-3.8,18,15.7,28.5,31.1,20.8
			c-0.3,8-3.8,24.7-22.8,18.9c-7.4-2.6-12.2-8.3-14.8-15.4c-6.1-17.3-3.2-32.7,8.7-46.2c6.7-7.7,19.2-12.8,40.1-12.8
			c13.8-1.9,52.3-1.6,66.1-1.9c2.2,0,33.7-0.6,39.8-0.3C359.2,72.3,360.1,72.9,359.8,73.9z"/>
	</g>
	<g>
		<g>
			<path class="st0" d="M382.2,292.2c-1.9,6-6.1,11.1-11.5,11.7c-9.9,0.9-14.1-8.7-14.3-15.6c-0.3-11.4,5.9-48.2,4.4-60.6
				c-0.8-8-9.9-9.7-15.7-6.4c-0.2,4.2-0.3,8.5-0.4,12.6c-0.5,20.5-2.5,43.1,0.4,63.6c1.3,3.2,4.2,5.8,4.2,5.8c0.4,0.8-0.2,1.9-1,2
				c-2.1,0.2-4.2-0.2-6.5,0c-3.6,0.3-11.8,2.4-12.6,1.2c0.2,0,0.2-0.2,0.2-0.2c5.2-9.9,2.3-27.8,1.9-38.4c-0.4-11.3,0-22.7,0.6-34
				c2.3-49.8-0.6-48.7-1.3-59.4c-0.6-1-1.5-1.9-2.5-2.7c-0.8-0.6,0-1.9,0.8-1.9c0,0,0.2,0,0.4,0c0.4,0,0.6,0,0.8,0
				c4-1.1,8.4-2,12.4-1.9c0,0,0,0,0.2,0c6.1-0.5,12.2-1,14.1-1.1c10.1-0.3,12.8,7.7,12.8,15.6c0,14.5-6.7,25.8-13.2,31.7
				c9.2-0.2,16.6,6,16.4,17.2c-0.2,11.8-2.7,23.9-4.2,35.8c-0.8,6.1-1.5,12.3-1.7,18.2c-0.6,12.7,4.8,12.2,7.8,10.4
				c2.1-1.3,3.4-3.8,3.8-6c0-2.5-0.6-5.5-3.1-5.3c-1.1,0-3.6-0.4-3.2-2c0.6-2.2,6.7-4.1,9.4-0.5C383.5,284.3,383.3,289,382.2,292.2z
				 M355.6,185.4c-0.4-3.5-0.8-8.9-3.8-11.2c-2.5-2-5-1.3-8-0.8c2.7,13.2,2.1,27.5,1.5,41.6c0.8-0.5,1.7-0.8,2.5-1.3
				C354.9,207,356.4,194.7,355.6,185.4z"/>
			<path class="st0" d="M455.1,136.3c-4.2,1.9-6.3,5.5-8,8.4c0,0-25.8,49.7-30,58c0,1.7,2.1,63.6,2.1,63.6c0,8.2-1,15.7,2.9,15.4
				c0.2,0.1,0.6,0,0.8,0.1c0.8,0.1,0.8,1.3,0,2.1c-3.6,3.3-20.1,9.4-24.6,9.6c-1,0.1-1-1.3,0-2.1c0.2-0.1,0.6-0.2,0.8-0.5
				c2.3-1.2,4.6-6.8,4.6-12.1c0-7.6-0.4-69.6-0.4-69.8c-2.1-2-21-34.5-22.2-38.1c-1.3-2.4-2.9-4.3-5.5-4.5c-0.2-0.2-1.5-1.1-0.6-1.5
				c4-2.2,19.7-7.2,23.1-7.4c0.8-0.1,0.8,1.4,0,1.9c-0.2,0.1-0.2,0.1-0.2,0.1c0,0.2,0,0.2,0,0.2c-2.1,1.1-2.9,1.8-2.7,5.5
				c0.4,4.9,18.7,27.7,19.7,30.3c8-15,14.3-27.2,20.8-41.3c2.5-5.1,3.2-9.5,0.8-10.2c-0.4,0-0.4-0.5,0-0.8c0.6-0.9,9-4.9,10.1-5.4
				c2.7-1.2,5.7-2.9,8.4-3.3C456.1,134.1,456.1,135.8,455.1,136.3z"/>
			<path class="st0" d="M486.4,120.4c0,0-1.7,0.6-4.6,8.2c0,0-1.5,10.8-2.7,61.3c-0.2,11.4,0.1,22.8-0.4,34c-0.4,7.9,0,15.7,0,23.5
				c0.6,2.9,1.9,5.2,4.4,6.1c0.2-0.1,0.6-0.3,0.8-0.4c1-0.5,1.7,0.9,0.6,1.8c-3.6,3.1-7.5,4.8-10.9,6.5c-3.7,1.8-7.3,3.8-11.1,5.5
				c-0.8,1-2.1,1.8-3.1,1.9c-1.2,0.1-1.5-1-0.4-2.3c1.3-1.4,2.5-2,3.4-3.8c0.8-1.6,1.5-3.4,1.9-5.1c-0.2-4.9,1.1-11.7,1.3-14.9
				c0.5-12.8,0.6-26.3,1.3-39.6c0.6-13.1,0.4-25.6,0.4-38.6c0-7.3,0.8-15.1,1.3-22.6c-0.6-4.3-2.1-8.5-6.3-9.3
				c-0.6-0.1-0.6-1.2,0.2-1.8c0.8-0.6,1-0.7,1.7-0.8c0.6-0.5,0.4,0.3,11.8-6.5c3.4-2,6.7-4.2,9.9-4.6
				C486.4,118.9,486.6,119.6,486.4,120.4z"/>
			<path class="st0" d="M556.1,93.7c0,10.5,0,15.6-0.6,41.4c-1.5,59.6,0.2,57.5,0.2,57.5c0,9.2,0,18.5,0.8,27.2
				c0,1.9,2.1,2.4,4.4,2.2c1.7-0.2,1.3,2.7-0.4,3.3c-1.7,0.8-3.4,1.4-5,2.2c-0.2,0.1-0.4,0.2-0.6,0.2c-4.2,1.7-8.2,3.9-12.2,6.9
				c-1.7,1.3-2.5-0.9-1.1-2.3c4.8-4.4,5.2-9.5,5-13.3c-0.1-2.6,0-5.7,0-8.6c-0.6-2.7,0-5.9-0.2-8.9c0-0.4,0-0.6,0-1
				c-5.7-9.8-14.3-18.4-20.6-27.3c-4.6-6.4-8.8-13.4-13.9-19.1c-2.3-2.7-5.2-5-6.7-8.5c0,0,0,0,0,0.2c1.1,13.2-0.5,28.5-0.4,41.6
				c0.1,16.9,0.4,34-0.2,51.3c0.4,2.5,1,4.8,4.6,4.4c1.3-0.2,1.7,2,0,3.1c-5,3.3-10.1,6.1-15.1,9.6c-1.3,1-2.3-0.2-1.3-1.5
				c1.9-2.6,3.1-5,4.2-7.6c-1.1-21.8,1.5-45.3,1-67c-0.4-18,0.9-36.8,1-55.1c0-4.2-1.9-7.3-5.5-5.5c-1.5,0.9-1.6-1.3-0.2-2.4
				c1.3-1,6.1-3.6,7.1-4.1c3.6-1.6,4.4-0.3,7.8,3c5,4.9,9.9,11.8,14.3,17.4c7.8,10.5,16.8,20.4,24.1,31.7
				c-0.2-13.4-0.1-27.2,0.6-40.8c0.6-10.7,2.7-28.6-0.6-29.8c-0.8,0.3-1.5,0.4-2.1,0.4c-0.6,0-0.4-0.7,0-1c4.8-3.8,11.8-6.8,17-7.7
				c1.5-0.1,1,2.6-0.4,3.1C558.6,89.4,556.1,90.8,556.1,93.7z"/>
			<path class="st0" d="M635.6,129.5c-1.1,1.3-2.3,2.1-2.9,3.8c-0.8,1.9-1.5,4-1.9,6.1c0,0.2,0,0.2,0,0.4c0.2,1.9,1.9,64.8,1.7,68.6
				c0,1.1-0.4,2.5-2.7,2.6c-4.8,0.2-12.8,2.5-12.8-0.7c0-2.1,0-4.4,0-6.7c-16.6,24.5-37.2,12-42.4,0.2c-6.3-14.7-6.7-36.8-5.5-55.2
				c5.3-67.4,34.4-80.8,44.3-76.6c2.5,0.3,5.7,2.5,7.6-0.6c0.6-1.3,1.2-2.7,1.5-3.9c0.2-1.1,0.2-2.3,1-3.2c0.4-0.2,1.1-0.5,1.5-0.1
				c0.6,0.6,0.8,1.4,0.8,2.2c0.4,6.3,0.6,42.4-1.1,42.7c-0.4,0.7-1.5,0.7-1.7-0.1c-1.9-7-3.8-31.4-12.8-30
				c-17.6,2.6-21.7,53.7-21.8,70.9c-0.1,14.4,0,63.1,15.1,60.4c4.4-0.8,13-10.1,13.9-15c4.1-24.4-0.6-45.3-1-53.4c0-0.6,0-1,0-1.5
				c-0.4-3.7-1.7-7.2-5-9.4c-0.2-0.2-0.2-0.4-0.2-0.6c0-0.4,0.2-0.7,0.8-1c7.6-1.9,16.8-4.7,24.1-2.4
				C637.7,127.4,637.1,129.5,635.6,129.5z"/>
		</g>
	</g>
	<g>
		<g>
			<path class="st0" d="M336.8,334.5c2.6-0.4,9.6-2.3,12-2.7c1.2-0.2,1.4,1,0.2,2.5c-2.6,3.4-3.1,7-3.4,10.9c0.2,1.8,0.2,3.9,0.2,6
				c0.2,1.2,0.2,2.3,0.2,3.5c0,15.5-1.6,31.6-2.6,47c-1.1,15.8-0.2,32.4-4.8,48.4c-2.6,9.6-8.2,20.8-18.2,25.4
				c-7.7,3.5-16.6,3.7-21.1-1.4c-9.8-7.9-12.2-30.1-12.7-37.6c-1-16.8-1.2-33.8-0.2-50.6c0.2-8.2,0.2-16.4,1.4-24.4
				c1-6.3,1.9-13.7-1.2-17.2c-0.7-1-1.4-1.9-2.9-2.5c-0.2-0.2-0.2-0.8,0.7-1c5.5-1.5,11.9-1.8,17.5-2.2c5.9-0.4,11.8-1.2,18-1.6
				c1.2,0.1,0.5,2.5-0.5,2.8c-5,1.1-7,7.2-8.2,10.4c-2.6,7.8-2.6,17-3.6,23.2c-2.2,11.5-2.2,23-2.6,34.4
				c-0.5,11.4-0.4,22.5,0.2,33.6c0.5,8.7-1.7,20.7,5,27.4c1,0.3,2.2,0.7,3.4,0.8c5.8,0.1,10.6-3.6,13.9-8c2.2-3.2,3.1-6.5,4.1-9.3
				c2.9-10.7,3.4-21.3,4.1-31.8c1-14.6,2.6-29.6,3.4-44.4c0.2-7.6-0.2-15.1,0-22.9c-0.2-1.9,0-3.8,0-5.9c0-1.9-0.2-3.7-0.2-5.8
				c-0.2-0.4-0.2-1-0.5-1.4c-0.5-1-1-1.7-1.4-2.5c-0.5-0.6-1-0.9-1.2-1.7C335.8,335.3,336.1,334.6,336.8,334.5z"/>
			<path class="st0" d="M413.6,332.2c-1.7,2-3.6-1.9-4.6-3.3c-1.4-2.9-4.1-4.7-8.4-3.5c-1.7,0.5-5.3,1.7-7.9,2.1
				c-0.3,26.9-0.4,40.3-0.7,67.2c-1,18.7-1.2,37.9-0.2,56.5c0.7,2.5,1.9,4.7,5,5.2c0.7-0.2,1.2-0.1,1.7,0c0.2-0.1,0.7-0.2,1-0.3
				c0.7-0.2,1.2,0.1,1.2,0.7c0,0.4,0,0.8,0,1.1c0,0.6-0.5,1.4-1.2,1.6c-7,2.3-14.2,5.2-21.1,6.5c-1.9,0.2-5,0.8-6-0.7c0,0,0,0,0-0.2
				c-0.2-0.2-0.2-0.4,0-0.6c0.5-1.6,2.2-2,3.6-3.1s2.4-2.2,3.1-3.9c0.2-0.5,0.5-1,0.7-1.4c0.2-9.1-1.4-18.6-1.4-27.4
				c0.4-39.1,0.6-58.7,1-97.9c-3.8,1.3-14.2-0.8-21.1,18c-0.2,0.5-1.2,0.4-1.2,0c-0.2-2.9-0.4-4.8-0.2-7.7c0.3-5.4,1-7.9,3.8-10.2
				c2.2-1.7,19-5.6,23.1-6.6c15.8-4,27.4-7.2,30-8c0,0.2,0.7,0.2,1.7-0.1c0.7,0,1.2,0.9,1.2,1.5C416,322,417.4,327.7,413.6,332.2z"
				/>
			<path class="st0" d="M490.4,338.4c-2.9,3.2-2.2-1-2.2-3.4c0.2-14.2-1.4-30.2-12.2-31.2c-4.1-0.3-8.2,1.4-9.8,2.6
				c-12.5,9.5-21,54.8-21.1,72.9c-0.1,10.2-1.4,62.9,18.5,55.6c7.2-2.6,16.1-13,18-21.1c0.2-1.3,1.2-1.9,2.6-2.5
				c0.5-0.2,1.2,0,1.4,0.3c3.4,5.8-9.4,24.5-23.3,31c-26.2,12.3-40.6-22.6-38.7-56.3c1.8-30.8,9.1-76.6,48.7-91.5
				c5.3-2,11-2.7,15.6-0.5c3.1-1.2,3.4-7.2,4.3-8c1-1,1.9-1.8,2.4-0.9C496.9,289.6,497.2,330.7,490.4,338.4z"/>
			<path class="st0" d="M577.4,256.5c-0.2,0.1-0.5,0.4-0.7,0.5c-1.4,1.4-3.1,2.6-4.6,4.2c-0.2,12.1,0.2,17.8-0.5,27.3
				c-0.8,11.4-0.9,22.9-1.4,34.2c-0.9,21.8-0.5,44.5-0.5,65.9c0,3.8,3.1,1.4,5,1.2c0.7-0.1,0.7,1.4,0.2,2
				c-1.2,1.3-14.6,7.2-16.1,7.8c-1.7,0.7-3.4,1.4-5,2.1c-1.2,0.3-1.2-1.8,0-2.5c4.8-2.4,4.4-0.4,3.4-28.7
				c-0.5-12.6-0.2-25.3,0.5-38.4c0-4.2,0.2-8.7,0.5-13.2c0,0-28.6,11.6-29.8,11.8c0,5.5-0.1,10.8-0.2,16.3
				c-0.5,19.9-1.4,42-0.2,61.8c0,0.8,0.7,1.6,3.1,0.2c0.7-0.3,1.2,1,0.7,1.8c-2.4,2.9-18.7,9.2-21.1,9.5c-0.2-0.1-0.2-0.1-0.2-0.3
				c-0.2-0.1-0.2-0.1,0-0.2c0-0.2,0-0.8,0.2-0.9c1.7-1.7,2.6-1.1,2.6-3.4c0.2-22.4,1.6-45.2,1.2-67.3c-0.3-20,1-41.5,0.7-61.8
				c0-1.3-1-2.1-2.6-1.7c-0.7,0.1-1.7,0.5-2.4,0.6c-0.5,0-0.5-0.6,0-0.8c3.6-2.3,10.4-5.3,14.4-7.2c3.4-1.6,6.7-3.4,10.1-4.2
				c1.2-0.3,1.2,1.2,0,1.9c-2.4,1.4-5,2.7-5,5.2c-1,15.5-1,30-1.2,44.8c12-5.3,18-8,30-13.4c0.7-15.6,1.2-31.4,1.2-44.6
				c0-0.2,0-0.4-0.2-0.5c-1.2-1-2.6-0.8-4.1-1c-0.2-0.1-0.2-0.3,0-0.6c0,0,0,0,0.2-0.1c0-0.2,0-0.2,0.2-0.3c0.1,0,0.1-0.1,0.2-0.1
				c0.2-0.3,0.5-0.4,1-0.6c2.9-1.4,8.6-4.1,11.5-5.5c3.1-1.3,6.2-3.3,9.1-3C578.1,255.3,577.8,256,577.4,256.5z"/>
			<path class="st0" d="M687.8,208c-0.5,0.4-1,0.7-1.4,1.3c-2.6,6.6-3.9,22.8-3.8,32.6c0.2,39.5-1.9,77.3-1.9,77.3
				c0,4.6-1.9,25.6,5.8,24.9c2.2-0.3,1.2,2.1-0.7,3.6c-3.8,2.8-25.2,14.9-28.6,11.8c0-0.2,0-0.6,0.2-0.9c0.5-0.4,1-0.8,1.7-1.1
				c7.7-8.1,6-15.7,6.5-23.4c1.2-35.4,1.9-53.1,3.1-88.5c-12.7,27.3-26.9,63.3-33.8,77.6c-0.5,1-1.9,1.8-2.9,1.4
				c-0.2-0.3-30.5-50.4-30.5-50.6c0.2,32.7-0.2,81.8-2.6,98.9c0,1.1,0,2.1,0.2,2.8c1,1.9,2.9,1.5,5.3,1.2c0.7,0.1,1.2,0.6,1,1.3
				c0,0.1,0,0.1,0,0.2c-1,2.9-11.5,7.1-18.7,10.5c-1,0.4-2.2-0.1-1.9-0.9c0,0,0-0.2,0.2-0.5c0.1-0.1,0.1-0.2,0.2-0.3
				c0-0.2,0.2-0.3,0.5-0.6c1.4-2.7,3.4-5.4,4.3-8.1c3.4-40.5,3.5-82.2,1-122.8c-0.5-3.8-3.4-2.8-6-3.2c-0.2-0.1-0.2-0.3-0.2-0.5
				c0.7-1.4,7.2-5.3,13.2-7.8c9.4-3.9,39.6,47.5,40.8,49.2c10.8-24,31.5-75.5,32.2-78.3c0.2-0.5,0.5-1,1.2-1.5c0,0,0-0.2,0.2-0.3
				c0.7-0.5,13.7-5.9,14.4-6.1C687.6,206.6,689,207.3,687.8,208z"/>
			<path class="st0" d="M754.6,326.6c0,4.6-39.4,13.1-52.8,17.4c-0.7,0.2-1.2-1.1-1-1.4c2.4-3.1,3.6-6.2,4.3-9.1
				c1-21.7,1.7-39.2,0.7-63.6c-0.2-5.2-0.5-10.6-0.7-15.9c-1,0.5-2.2,0.7-3.1,1c-0.2,0.1-0.7,0.2-1.2,0.2c-0.7,0.2-1.4,0.3-2.2,0.5
				c-0.7,0-1-0.7-0.5-1.3c0-0.2,0-0.4,0.2-0.5c1.7-2,4.1-3.6,6.5-5c-0.2-5.2-0.2-10.2,0-15.5c0-1.9,0.2-3.6,0.2-5.3
				c0-0.2,0-0.4,0-0.4c-0.7-5.9-0.7-11.5-3.1-16.4c-0.7-0.4-1.4-0.8-2.2-1c-0.5,0.2-0.7,0.2-1,0.1c-0.7,0.2-0.7-1.2,0-1.5
				c8.6-3.9,25.2-8.8,33.9-11.2c1.2-0.3,18.5-5.1,22.3-5.8c0.5-0.1,1.2,0.4,1,0.8c-3.4,8.1-1.9,12.2-2.4,15.2
				c0.2,3.9-1.4,4.9-2.6,2.3c-1.7-3.4-3.1-6.8-7.4-7.6c-5.5-1.1-17.8,4.1-26.2,5.7c0,5.9,0.5,11.4,0.5,17.3c0,1.9,0,3.8,0.2,5.6
				c0.3,2,0.2,3.9,0.5,5.9c0,2.1,0,4,0.2,6c6-2.2,16.6-6.3,19-11.4c0.5-1,1.9-1.1,1.9-0.3c0.2,0.1-0.5,15.2,0.5,19
				c0.2,1.2-1.9,2.2-2.2,1.2c0-0.6-0.2-1.4-0.2-2c-1.7-2.9-1.7-4.4-6.5-4.1c-0.5,0.1-8.9,2.5-9.6,2.5c-1,0.3-1.9,0.8-2.9,1.1
				c1,63.1,0.7,82.1,0.7,82.1c3.4-0.4,19.7-2.7,24.2-6.4c0-9.7,3.4-31.2,13.2-38c1-0.4,2.2-0.7,1.9,0
				C754.8,296.1,754.7,307.4,754.6,326.6z"/>
			<path class="st0" d="M838.1,185.4c0,10.5,0,15.7-0.7,41.2c-1.7,59.2,0.2,57.5,0.2,57.5c0,9.2,0,18.5,1,27.5c0,1.9,2.4,3.1,5,3.7
				c1.9,0.4,1.4,3.1-0.5,3.2c-1.9,0.2-3.8,0.3-5.8,0.5c-0.2,0-0.5,0-0.7,0c-4.8,0.3-9.4,1.2-13.9,3c-1.9,0.8-2.9-1.7-1.2-2.6
				c5.5-2.9,5.9-7.9,5.8-11.7c-0.1-2.6,0-5.7,0-8.6c-0.7-2.9,0-5.9-0.2-9c0-0.4,0-0.6,0-1c-6.5-11.6-16.3-23-23.5-33.7
				c-5.3-7.8-10.1-15.9-15.8-23c-2.6-3.4-6-6.4-7.7-10.3c0,0,0,0,0,0.2c1.2,13.4-0.6,28.4-0.5,41.4c0.2,16.8,0.5,34.1-0.2,51.3
				c0.5,2.6,1.2,5,5.3,5.6c1.4,0.2,1.9,2.4,0,3.1c-5.8,2-11.5,3.5-17.3,5.9c-1.4,0.7-2.6-0.7-1.4-1.8c2.2-2.1,3.6-4.3,4.8-6.6
				c-1.2-22,1.7-44.9,1.2-66.8c-0.4-18,1.1-36.6,1.2-54.8c0-4.2-2.2-7.8-6.2-6.8c-1.7,0.6-1.9-1.7-0.2-2.5c1.4-0.7,7-2.2,8.2-2.4
				c4.1-0.8,5,0.8,8.9,4.9c5.8,6.2,11.3,14.4,16.3,21.3c8.9,12.7,19.2,25.5,27.6,39.1c-0.2-13.4-0.1-27.2,0.7-40.6
				c0.6-10.5,3.1-27.7-0.7-30c-1,0.1-1.7-0.1-2.4-0.3c-0.7-0.2-0.5-0.8,0-1c5.5-2.2,13.4-2.9,19.4-2.1c1.7,0.4,1.2,2.9-0.5,2.9
				C841,182,838.1,182.5,838.1,185.4z"/>
		</g>
	</g>
	<g>
		<path class="st0" d="M151.6,516.4c6.7-1.9,7.7-7.1,8-12.5c0.3-7.7,0.3-15.1,0-22.5c-0.3-15.1-0.6-29.8-1-44.9c0-3.8,0-7.7,0-12.2
			c-1.6,0.6-2.9,0.6-3.5,1.3c-3.2,2.6-6.7,4.5-9.3,7.4c-11.5,13.5-16.7,29.2-18,46.5c-0.3,9.9,1.6,19.2,5.1,28.2
			c5.1,12.5,14.1,21.2,27.3,25c2.6,0.6,4.8,1.3,7.4,1.9c8,1.9,15.4-0.6,22.4-3.2c15.1-5.8,26-16.4,34.3-30.5
			c7.1-12.2,11.9-25.3,14.8-39.1c1.9-8.7,3.5-17.6,4.2-26.6c0.3-9-0.3-18-1-26.9c-0.6-9.9-1.6-19.9-2.2-29.8
			c-1-10.6-2.9-20.8-6.7-30.8c-1.6-4.2-2.9-8.7-4.8-12.8c-4.8-11.2-12.8-19.9-22.5-27.3c-7.7-5.4-16-8.3-24.7-9
			c-9.9-1-19.9,1.3-28.5,6.1c-3.9,2.2-7.4,5.1-10.6,8.3c-11.2,9.9-14.4,22.8-13.8,36.9c0.6,6.7,2.9,12.8,9.6,16
			c1.6,0.6,2.9,1.9,3.8,3.2c1.9,2.2,1,5.5-2.2,6.1c-6.4,1.6-16.4-4.2-18.6-10.6c-3.8-11.2-4.2-22.4-0.6-34
			c3.5-12.5,11.5-21.5,21.8-28.5c10.6-7.4,22.5-11.9,35.3-13.2c14.8-1.9,28.2,0,41.7,7.1c14.4,8,23.7,19.9,31.4,33.7
			c4.2,7.7,7.7,16,10.6,24.7c1.9,6.4,3.8,13.2,5.5,19.9c3.2,12.2,3.2,24.4,2.9,36.6c-0.3,10.6-0.6,21.2-2.9,31.4
			c-0.3,2.2-0.6,4.5-1.3,6.4c-1.3,5.1-2.2,10.3-3.8,15.4c-3.5,10.6-6.7,21.2-10.9,31.4c-3.9,9-10.6,16.4-17.6,22.8
			c-15.1,13.5-32.4,21.5-52,24.4c-16,2.6-29.8-1.9-42.7-11.2c-1-0.6-1.9-1.3-2.6-2.2c-7.1-9.6-15.1-18.6-18.3-30.5
			c-3.2-10.6-3.9-20.8-2.6-31.8c1-6.7,2.2-13.5,5.1-19.6c6.7-15.7,18.6-26.3,33.7-34c1.3-0.6,2.9-1.3,4.2-1.9
			c-0.3-9.9-0.6-19.6-1-29.2c0-1.6,0-3.5,0-5.1c0-9.9,0-19.9-0.3-29.5c0-4.2-0.6-8.3-1-12.5c-0.6-3.9-2.2-7.7-7.1-9
			c0.3-0.6,0.3-1,0.6-1.3c1.3-0.3,2.6-1.3,3.8-1.3c9.6-0.3,18.9-0.6,28.2-1c1.3,0,2.9,0.6,4.5,0.6c-0.3,1-0.3,1.9-0.6,2.2
			c-5.5,4.5-5.1,10.9-5.5,17c-0.3,7.4,0,14.4-0.3,21.5c0,9.3-0.6,18.3-0.6,27.3c-0.3,5.1-0.3,10.6-0.3,16.4c2.2,0,3.9,0,5.5,0
			c10.3,0.3,19.6,2.9,27.9,9c7.7,5.8,11.5,13.5,9.9,23.4c-1.3,8.3-9.3,13.8-18.6,12.2c0-1.6,0.3-3.5,0-5.5
			c-0.3-9.3-3.8-17-10.9-23.1c-3.8-3.2-8-4.5-13.5-5.1c0,2.9,0,5.1,0.3,7.4c0.3,13.2,1,26.3,1.6,39.4c0.6,12.2,1,24.4,1.6,36.2
			c0.3,5.1,2.2,9.3,6.7,11.9c1,0.3,1.6,1.9,2.2,2.6c-1,0.6-2.2,1.6-3.2,1.6c-4.5,0.3-9.3,0.6-13.8,0.6c-6.1,0.3-12.2,0.6-18,1
			c-1.9,0-3.9,0.6-5.5-1.9C151.3,517.1,151.6,516.4,151.6,516.4z"/>
	</g>
	<g>
		<g>
			<path class="st0" d="M461.8,58.2c-0.7,1.1-1.6-0.8-2-1.5c-0.6-1.4-1.8-2.2-3.7-1.5c-0.7,0.3-2.3,0.9-3.5,1.2
				c-0.1,13.4-0.2,20.1-0.3,33.6c-0.4,9.4-0.5,18.9-0.1,28.3c0.3,1.3,0.8,2.4,2.2,2.5c0.3-0.1,0.5-0.1,0.7,0c0.1,0,0.3-0.1,0.4-0.1
				c0.3-0.1,0.5,0,0.5,0.3c0,0.2,0,0.4,0,0.5c0,0.3-0.2,0.7-0.5,0.8c-3,1.3-6.2,2.7-9.2,3.1c-0.8,0.1-2.2,0.2-2.6-0.6c0,0,0,0,0-0.1
				c-0.1-0.1-0.1-0.2,0-0.3c0.2-0.8,0.9-0.9,1.6-1.4c0.6-0.5,1.1-1,1.4-1.8c0.1-0.2,0.2-0.5,0.3-0.7c0.1-4.5-0.6-9.3-0.6-13.7
				c0.2-19.6,0.3-29.3,0.4-48.9c-1.7,0.6-6.2-1-9.2,7.8c-0.1,0.2-0.5,0.1-0.5-0.1c-0.1-1.5-0.2-2.4-0.1-3.9c0.1-2.7,0.4-3.9,1.7-4.8
				c0.9-0.7,8.3-1.8,10.1-2.2c6.9-1.7,12-3.9,13.1-4.4c0,0.1,0.3,0.1,0.7-0.1c0.3,0,0.5,0.4,0.5,0.7
				C462.9,53.1,463.5,55.8,461.8,58.2z"/>
			<path class="st0" d="M496.8,34.1c-0.1,0.1-0.2,0.2-0.3,0.3c-0.6,0.7-1.4,1.3-2,2.1c-0.1,6,0.1,8.9-0.2,13.6
				c-0.3,5.7-0.4,11.4-0.6,17.1c-0.4,10.9-0.2,22.3-0.2,33c0,1.9,1.4,0.7,2.2,0.6c0.3,0,0.3,0.7,0.1,1c-0.5,0.7-6.4,3.8-7,4.1
				c-0.7,0.4-1.5,0.8-2.2,1.2c-0.5,0.2-0.5-0.9,0-1.3c2.1-1.3,1.9-0.3,1.5-14.4c-0.2-6.3-0.1-12.6,0.2-19.2c0-2.1,0.1-4.4,0.2-6.6
				c0,0-12.5,6.5-13,6.6c0,2.7,0,5.4-0.1,8.1c-0.2,10-0.6,21-0.1,30.9c0,0.4,0.3,0.8,1.4,0c0.3-0.2,0.5,0.5,0.3,0.9
				c-1.1,1.5-8.2,4.9-9.2,5.1c-0.1-0.1-0.1-0.1-0.1-0.2c-0.1-0.1-0.1-0.1,0-0.1c0-0.1,0-0.4,0.1-0.5c0.7-0.9,1.2-0.6,1.2-1.7
				c0.1-11.2,0.7-22.6,0.5-33.6c-0.2-10,0.4-20.8,0.3-30.9c0-0.6-0.4-1-1.2-0.8c-0.3,0-0.7,0.3-1.1,0.3c-0.2,0-0.2-0.3,0-0.4
				c1.6-1.2,4.5-2.8,6.3-3.8c1.5-0.9,2.9-1.9,4.4-2.3c0.5-0.2,0.5,0.6,0,0.9c-1,0.8-2.2,1.5-2.2,2.7c-0.4,7.8-0.4,15-0.5,22.4
				c5.2-2.9,7.9-4.5,13.1-7.4c0.3-7.8,0.5-15.7,0.5-22.3c0-0.1,0-0.2-0.1-0.3c-0.5-0.5-1.2-0.3-1.8-0.4c-0.1,0-0.1-0.2,0-0.3
				c0,0,0,0,0.1-0.1c0-0.1,0-0.1,0.1-0.2c0,0,0.1,0,0.1-0.1c0.1-0.2,0.2-0.2,0.4-0.3c1.3-0.8,3.8-2.2,5-2.9c1.4-0.7,2.7-1.7,4-1.6
				C497.1,33.5,497,33.9,496.8,34.1z"/>
			<path class="st0" d="M525.3,91.9c0,2.3-17.2,4.9-23.1,7.4c-0.3,0.1-0.5-0.5-0.4-0.7c1-1.6,1.6-3.2,1.9-4.7
				c0.4-10.9,0.7-19.6,0.3-31.8c-0.1-2.6-0.2-5.3-0.3-7.9c-0.4,0.3-0.9,0.4-1.4,0.6c-0.1,0-0.3,0.1-0.5,0.1
				c-0.3,0.1-0.6,0.2-0.9,0.3c-0.3,0-0.4-0.3-0.2-0.6c0-0.1,0-0.2,0.1-0.3c0.7-1.1,1.8-1.9,2.8-2.7c-0.1-2.6-0.1-5.1,0-7.8
				c0-0.9,0.1-1.8,0.1-2.7c0-0.1,0-0.2,0-0.2c-0.3-2.9-0.3-5.8-1.4-8.1c-0.3-0.2-0.6-0.4-0.9-0.4c-0.2,0.1-0.3,0.1-0.4,0.1
				c-0.3,0.1-0.3-0.6,0-0.7c3.8-2.2,11-4.8,14.8-5.7c0.5-0.1,8.1-1.5,9.8-1.5c0.2,0,0.5,0.3,0.4,0.5c-1.5,3.7-0.8,5.9-1.1,7.4
				c0.1,2-0.6,2.3-1.2,0.9c-0.7-1.8-1.4-3.7-3.3-4.4c-2.4-0.9-7.8,1.3-11.4,2.2c0,2.9,0.2,5.7,0.2,8.6c0,0.9,0,1.9,0.1,2.8
				c0.1,1,0.1,2,0.2,3c0,1,0,2,0.1,3c2.6-1.1,7.2-2.9,8.3-5.3c0.2-0.5,0.8-0.5,0.8-0.1c0.1,0.1-0.2,7.6,0.2,9.5
				c0.1,0.6-0.8,1-0.9,0.5c0-0.3-0.1-0.7-0.1-1c-0.7-1.5-0.7-2.3-2.8-2.3c-0.2,0.1-3.9,1.1-4.2,1.1c-0.4,0.1-0.8,0.4-1.3,0.5
				c0.4,31.6,0.3,41,0.3,41c1.5-0.2,8.6-0.9,10.6-2.5c0-4.8,1.5-15.5,5.8-17.9c0.4-0.1,0.9-0.1,0.8,0.2
				C525.4,76.6,525.4,82.3,525.3,91.9z"/>
		</g>
	</g>
	<path class="st0" d="M587.6,29c2.1,3,1.9,7-1.5,9.4c-10.9,7.6-22.2-9-11.5-16.5c15.8-11,33.5,13.4,16.2,25.4
		c-14,9.7-40.4,0.5-56.4,11.6l30.3-21c-0.2,2.8,2.5,7,6.2,7.9"/>
	<path class="st0" d="M379.1,112.3c1,3.6,4.2,5.9,8.2,4.8c12.8-3.7,7.1-22.9-5.6-19.3c-18.5,5.3-10.7,34.5,9.5,28.6
		c16.4-4.7,25.8-31,44.6-36.4l-35.4,10.2c2.3,1.6,3.9,6.4,2.2,9.8"/>
</g>
</svg>
